<svg xmlns="http://www.w3.org/2000/svg" width="512" height="512" viewBox="0 0 512 512"><defs><linearGradient id="bg" x1="0" y1="0" x2="0" y2="1"><stop offset="0" stop-color="#cf7b45"/><stop offset="1" stop-color="#9a4a22"/></linearGradient><clipPath id="squircle"><rect width="512" height="512" rx="116"/></clipPath></defs><rect width="512" height="512" rx="116" fill="url(#bg)"/><g clip-path="url(#squircle)"><g fill="none" stroke="#1c130c" stroke-width="22.0" stroke-linecap="round"><path d="M-70.0,338.0 A188.0,188.0 0 0 1 306.0,338.0"/><path d="M-7.3,338.0 A125.3,125.3 0 0 1 243.3,338.0"/><path d="M55.3,338.0 A62.7,62.7 0 0 1 180.7,338.0"/></g><g fill="none" stroke="#1c130c" stroke-width="22.0" stroke-linecap="round"><path d="M206.0,338.0 A188.0,188.0 0 0 1 582.0,338.0"/><path d="M268.7,338.0 A125.3,125.3 0 0 1 519.3,338.0"/><path d="M331.3,338.0 A62.7,62.7 0 0 1 456.7,338.0"/></g><g fill="none" stroke="#f2e6d0" stroke-width="30.0" stroke-linecap="round"><path d="M46.0,338.0 A210.0,210.0 0 0 1 466.0,338.0"/><path d="M98.5,338.0 A157.5,157.5 0 0 1 413.5,338.0"/><path d="M151.0,338.0 A105.0,105.0 0 0 1 361.0,338.0"/><path d="M203.5,338.0 A52.5,52.5 0 0 1 308.5,338.0"/></g></g></svg>