<svg xmlns="http://www.w3.org/2000/svg" width="512" height="512" viewBox="0 0 512 512"><defs><linearGradient id="bg" x1="0" y1="0" x2="0" y2="1"><stop offset="0" stop-color="#cf7b45"/><stop offset="1" stop-color="#9a4a22"/></linearGradient><clipPath id="squircle"><rect width="512" height="512" rx="116"/></clipPath></defs><rect width="512" height="512" rx="116" fill="url(#bg)"/><g clip-path="url(#squircle)"><g fill="none" stroke="#2a1810" stroke-width="5" stroke-opacity="0.18"><path d="M-128.0,0.0 A64.0,64.0 0 0 0 0.0,0.0 M-106.7,0.0 A42.7,42.7 0 0 0 -21.3,0.0 M-85.3,0.0 A21.3,21.3 0 0 0 -42.7,0.0 M0.0,0.0 A64.0,64.0 0 0 0 128.0,0.0 M21.3,0.0 A42.7,42.7 0 0 0 106.7,0.0 M42.7,0.0 A21.3,21.3 0 0 0 85.3,0.0 M128.0,0.0 A64.0,64.0 0 0 0 256.0,0.0 M149.3,0.0 A42.7,42.7 0 0 0 234.7,0.0 M170.7,0.0 A21.3,21.3 0 0 0 213.3,0.0 M256.0,0.0 A64.0,64.0 0 0 0 384.0,0.0 M277.3,0.0 A42.7,42.7 0 0 0 362.7,0.0 M298.7,0.0 A21.3,21.3 0 0 0 341.3,0.0 M384.0,0.0 A64.0,64.0 0 0 0 512.0,0.0 M405.3,0.0 A42.7,42.7 0 0 0 490.7,0.0 M426.7,0.0 A21.3,21.3 0 0 0 469.3,0.0 M512.0,0.0 A64.0,64.0 0 0 0 640.0,0.0 M533.3,0.0 A42.7,42.7 0 0 0 618.7,0.0 M554.7,0.0 A21.3,21.3 0 0 0 597.3,0.0 M-64.0,64.0 A64.0,64.0 0 0 0 64.0,64.0 M-42.7,64.0 A42.7,42.7 0 0 0 42.7,64.0 M-21.3,64.0 A21.3,21.3 0 0 0 21.3,64.0 M64.0,64.0 A64.0,64.0 0 0 0 192.0,64.0 M85.3,64.0 A42.7,42.7 0 0 0 170.7,64.0 M106.7,64.0 A21.3,21.3 0 0 0 149.3,64.0 M192.0,64.0 A64.0,64.0 0 0 0 320.0,64.0 M213.3,64.0 A42.7,42.7 0 0 0 298.7,64.0 M234.7,64.0 A21.3,21.3 0 0 0 277.3,64.0 M320.0,64.0 A64.0,64.0 0 0 0 448.0,64.0 M341.3,64.0 A42.7,42.7 0 0 0 426.7,64.0 M362.7,64.0 A21.3,21.3 0 0 0 405.3,64.0 M448.0,64.0 A64.0,64.0 0 0 0 576.0,64.0 M469.3,64.0 A42.7,42.7 0 0 0 554.7,64.0 M490.7,64.0 A21.3,21.3 0 0 0 533.3,64.0 M-128.0,128.0 A64.0,64.0 0 0 0 0.0,128.0 M-106.7,128.0 A42.7,42.7 0 0 0 -21.3,128.0 M-85.3,128.0 A21.3,21.3 0 0 0 -42.7,128.0 M0.0,128.0 A64.0,64.0 0 0 0 128.0,128.0 M21.3,128.0 A42.7,42.7 0 0 0 106.7,128.0 M42.7,128.0 A21.3,21.3 0 0 0 85.3,128.0 M128.0,128.0 A64.0,64.0 0 0 0 256.0,128.0 M149.3,128.0 A42.7,42.7 0 0 0 234.7,128.0 M170.7,128.0 A21.3,21.3 0 0 0 213.3,128.0 M256.0,128.0 A64.0,64.0 0 0 0 384.0,128.0 M277.3,128.0 A42.7,42.7 0 0 0 362.7,128.0 M298.7,128.0 A21.3,21.3 0 0 0 341.3,128.0 M384.0,128.0 A64.0,64.0 0 0 0 512.0,128.0 M405.3,128.0 A42.7,42.7 0 0 0 490.7,128.0 M426.7,128.0 A21.3,21.3 0 0 0 469.3,128.0 M512.0,128.0 A64.0,64.0 0 0 0 640.0,128.0 M533.3,128.0 A42.7,42.7 0 0 0 618.7,128.0 M554.7,128.0 A21.3,21.3 0 0 0 597.3,128.0 M-64.0,192.0 A64.0,64.0 0 0 0 64.0,192.0 M-42.7,192.0 A42.7,42.7 0 0 0 42.7,192.0 M-21.3,192.0 A21.3,21.3 0 0 0 21.3,192.0 M64.0,192.0 A64.0,64.0 0 0 0 192.0,192.0 M85.3,192.0 A42.7,42.7 0 0 0 170.7,192.0 M106.7,192.0 A21.3,21.3 0 0 0 149.3,192.0 M192.0,192.0 A64.0,64.0 0 0 0 320.0,192.0 M213.3,192.0 A42.7,42.7 0 0 0 298.7,192.0 M234.7,192.0 A21.3,21.3 0 0 0 277.3,192.0 M320.0,192.0 A64.0,64.0 0 0 0 448.0,192.0 M341.3,192.0 A42.7,42.7 0 0 0 426.7,192.0 M362.7,192.0 A21.3,21.3 0 0 0 405.3,192.0 M448.0,192.0 A64.0,64.0 0 0 0 576.0,192.0 M469.3,192.0 A42.7,42.7 0 0 0 554.7,192.0 M490.7,192.0 A21.3,21.3 0 0 0 533.3,192.0 M-128.0,256.0 A64.0,64.0 0 0 0 0.0,256.0 M-106.7,256.0 A42.7,42.7 0 0 0 -21.3,256.0 M-85.3,256.0 A21.3,21.3 0 0 0 -42.7,256.0 M0.0,256.0 A64.0,64.0 0 0 0 128.0,256.0 M21.3,256.0 A42.7,42.7 0 0 0 106.7,256.0 M42.7,256.0 A21.3,21.3 0 0 0 85.3,256.0 M128.0,256.0 A64.0,64.0 0 0 0 256.0,256.0 M149.3,256.0 A42.7,42.7 0 0 0 234.7,256.0 M170.7,256.0 A21.3,21.3 0 0 0 213.3,256.0 M256.0,256.0 A64.0,64.0 0 0 0 384.0,256.0 M277.3,256.0 A42.7,42.7 0 0 0 362.7,256.0 M298.7,256.0 A21.3,21.3 0 0 0 341.3,256.0 M384.0,256.0 A64.0,64.0 0 0 0 512.0,256.0 M405.3,256.0 A42.7,42.7 0 0 0 490.7,256.0 M426.7,256.0 A21.3,21.3 0 0 0 469.3,256.0 M512.0,256.0 A64.0,64.0 0 0 0 640.0,256.0 M533.3,256.0 A42.7,42.7 0 0 0 618.7,256.0 M554.7,256.0 A21.3,21.3 0 0 0 597.3,256.0 M-64.0,320.0 A64.0,64.0 0 0 0 64.0,320.0 M-42.7,320.0 A42.7,42.7 0 0 0 42.7,320.0 M-21.3,320.0 A21.3,21.3 0 0 0 21.3,320.0 M64.0,320.0 A64.0,64.0 0 0 0 192.0,320.0 M85.3,320.0 A42.7,42.7 0 0 0 170.7,320.0 M106.7,320.0 A21.3,21.3 0 0 0 149.3,320.0 M192.0,320.0 A64.0,64.0 0 0 0 320.0,320.0 M213.3,320.0 A42.7,42.7 0 0 0 298.7,320.0 M234.7,320.0 A21.3,21.3 0 0 0 277.3,320.0 M320.0,320.0 A64.0,64.0 0 0 0 448.0,320.0 M341.3,320.0 A42.7,42.7 0 0 0 426.7,320.0 M362.7,320.0 A21.3,21.3 0 0 0 405.3,320.0 M448.0,320.0 A64.0,64.0 0 0 0 576.0,320.0 M469.3,320.0 A42.7,42.7 0 0 0 554.7,320.0 M490.7,320.0 A21.3,21.3 0 0 0 533.3,320.0 M-128.0,384.0 A64.0,64.0 0 0 0 0.0,384.0 M-106.7,384.0 A42.7,42.7 0 0 0 -21.3,384.0 M-85.3,384.0 A21.3,21.3 0 0 0 -42.7,384.0 M0.0,384.0 A64.0,64.0 0 0 0 128.0,384.0 M21.3,384.0 A42.7,42.7 0 0 0 106.7,384.0 M42.7,384.0 A21.3,21.3 0 0 0 85.3,384.0 M128.0,384.0 A64.0,64.0 0 0 0 256.0,384.0 M149.3,384.0 A42.7,42.7 0 0 0 234.7,384.0 M170.7,384.0 A21.3,21.3 0 0 0 213.3,384.0 M256.0,384.0 A64.0,64.0 0 0 0 384.0,384.0 M277.3,384.0 A42.7,42.7 0 0 0 362.7,384.0 M298.7,384.0 A21.3,21.3 0 0 0 341.3,384.0 M384.0,384.0 A64.0,64.0 0 0 0 512.0,384.0 M405.3,384.0 A42.7,42.7 0 0 0 490.7,384.0 M426.7,384.0 A21.3,21.3 0 0 0 469.3,384.0 M512.0,384.0 A64.0,64.0 0 0 0 640.0,384.0 M533.3,384.0 A42.7,42.7 0 0 0 618.7,384.0 M554.7,384.0 A21.3,21.3 0 0 0 597.3,384.0 M-64.0,448.0 A64.0,64.0 0 0 0 64.0,448.0 M-42.7,448.0 A42.7,42.7 0 0 0 42.7,448.0 M-21.3,448.0 A21.3,21.3 0 0 0 21.3,448.0 M64.0,448.0 A64.0,64.0 0 0 0 192.0,448.0 M85.3,448.0 A42.7,42.7 0 0 0 170.7,448.0 M106.7,448.0 A21.3,21.3 0 0 0 149.3,448.0 M192.0,448.0 A64.0,64.0 0 0 0 320.0,448.0 M213.3,448.0 A42.7,42.7 0 0 0 298.7,448.0 M234.7,448.0 A21.3,21.3 0 0 0 277.3,448.0 M320.0,448.0 A64.0,64.0 0 0 0 448.0,448.0 M341.3,448.0 A42.7,42.7 0 0 0 426.7,448.0 M362.7,448.0 A21.3,21.3 0 0 0 405.3,448.0 M448.0,448.0 A64.0,64.0 0 0 0 576.0,448.0 M469.3,448.0 A42.7,42.7 0 0 0 554.7,448.0 M490.7,448.0 A21.3,21.3 0 0 0 533.3,448.0 M-128.0,512.0 A64.0,64.0 0 0 0 0.0,512.0 M-106.7,512.0 A42.7,42.7 0 0 0 -21.3,512.0 M-85.3,512.0 A21.3,21.3 0 0 0 -42.7,512.0 M0.0,512.0 A64.0,64.0 0 0 0 128.0,512.0 M21.3,512.0 A42.7,42.7 0 0 0 106.7,512.0 M42.7,512.0 A21.3,21.3 0 0 0 85.3,512.0 M128.0,512.0 A64.0,64.0 0 0 0 256.0,512.0 M149.3,512.0 A42.7,42.7 0 0 0 234.7,512.0 M170.7,512.0 A21.3,21.3 0 0 0 213.3,512.0 M256.0,512.0 A64.0,64.0 0 0 0 384.0,512.0 M277.3,512.0 A42.7,42.7 0 0 0 362.7,512.0 M298.7,512.0 A21.3,21.3 0 0 0 341.3,512.0 M384.0,512.0 A64.0,64.0 0 0 0 512.0,512.0 M405.3,512.0 A42.7,42.7 0 0 0 490.7,512.0 M426.7,512.0 A21.3,21.3 0 0 0 469.3,512.0 M512.0,512.0 A64.0,64.0 0 0 0 640.0,512.0 M533.3,512.0 A42.7,42.7 0 0 0 618.7,512.0 M554.7,512.0 A21.3,21.3 0 0 0 597.3,512.0 M-64.0,576.0 A64.0,64.0 0 0 0 64.0,576.0 M-42.7,576.0 A42.7,42.7 0 0 0 42.7,576.0 M-21.3,576.0 A21.3,21.3 0 0 0 21.3,576.0 M64.0,576.0 A64.0,64.0 0 0 0 192.0,576.0 M85.3,576.0 A42.7,42.7 0 0 0 170.7,576.0 M106.7,576.0 A21.3,21.3 0 0 0 149.3,576.0 M192.0,576.0 A64.0,64.0 0 0 0 320.0,576.0 M213.3,576.0 A42.7,42.7 0 0 0 298.7,576.0 M234.7,576.0 A21.3,21.3 0 0 0 277.3,576.0 M320.0,576.0 A64.0,64.0 0 0 0 448.0,576.0 M341.3,576.0 A42.7,42.7 0 0 0 426.7,576.0 M362.7,576.0 A21.3,21.3 0 0 0 405.3,576.0 M448.0,576.0 A64.0,64.0 0 0 0 576.0,576.0 M469.3,576.0 A42.7,42.7 0 0 0 554.7,576.0 M490.7,576.0 A21.3,21.3 0 0 0 533.3,576.0"/></g><text x="256" y="345" text-anchor="middle" font-family="Montserrat" font-weight="900" font-size="340" fill="#f2e6d0">a</text></g></svg>